<svg width="40" height="40" viewBox="0 0 40 40" fill="none" xmlns="http://www.w3.org/2000/svg">
<path d="M28.3334 15.2833C28.0211 14.9729 27.5987 14.7987 27.1584 14.7987C26.7181 14.7987 26.2957 14.9729 25.9834 15.2833L20.0001 21.1833L14.1001 15.2833C13.7878 14.9729 13.3654 14.7987 12.9251 14.7987C12.4848 14.7987 12.0623 14.9729 11.7501 15.2833C11.5939 15.4383 11.4699 15.6226 11.3853 15.8257C11.3006 16.0288 11.2571 16.2466 11.2571 16.4667C11.2571 16.6867 11.3006 16.9045 11.3853 17.1076C11.4699 17.3107 11.5939 17.4951 11.7501 17.65L18.8167 24.7167C18.9717 24.8729 19.156 24.9969 19.3591 25.0815C19.5622 25.1661 19.7801 25.2097 20.0001 25.2097C20.2201 25.2097 20.4379 25.1661 20.641 25.0815C20.8441 24.9969 21.0285 24.8729 21.1834 24.7167L28.3334 17.65C28.4896 17.4951 28.6136 17.3107 28.6982 17.1076C28.7828 16.9045 28.8264 16.6867 28.8264 16.4667C28.8264 16.2466 28.7828 16.0288 28.6982 15.8257C28.6136 15.6226 28.4896 15.4383 28.3334 15.2833Z" fill="#353535"/>
</svg>
