<svg width="18" height="14" viewBox="0 0 18 14" fill="none" xmlns="http://www.w3.org/2000/svg">
<path d="M17.3875 1.01245C17.2713 0.895288 17.133 0.802294 16.9807 0.738834C16.8284 0.675373 16.665 0.6427 16.5 0.6427C16.335 0.6427 16.1716 0.675373 16.0193 0.738834C15.867 0.802294 15.7287 0.895288 15.6125 1.01245L6.3 10.3374L2.3875 6.41245C2.26685 6.2959 2.12442 6.20426 1.96835 6.14275C1.81228 6.08125 1.64563 6.05108 1.4779 6.05399C1.31018 6.05689 1.14466 6.0928 0.990815 6.15966C0.836968 6.22653 0.697796 6.32305 0.581248 6.4437C0.4647 6.56435 0.373058 6.70678 0.311553 6.86285C0.250048 7.01891 0.219885 7.18557 0.222786 7.3533C0.225688 7.52102 0.261598 7.68653 0.328465 7.84038C0.395332 7.99423 0.491846 8.1334 0.612498 8.24995L5.4125 13.0499C5.5287 13.1671 5.66695 13.2601 5.81928 13.3236C5.9716 13.387 6.13498 13.4197 6.3 13.4197C6.46501 13.4197 6.6284 13.387 6.78072 13.3236C6.93304 13.2601 7.07129 13.1671 7.1875 13.0499L17.3875 2.84995C17.5144 2.7329 17.6156 2.59083 17.6849 2.43271C17.7542 2.27458 17.7899 2.10383 17.7899 1.9312C17.7899 1.75857 17.7542 1.58781 17.6849 1.42969C17.6156 1.27157 17.5144 1.1295 17.3875 1.01245V1.01245Z" fill="#4AA949"/>
</svg>
