<svg width="32" height="26" viewBox="0 0 32 26" fill="none" xmlns="http://www.w3.org/2000/svg">
<path d="M27.0832 0.333252H4.9165C3.65673 0.333252 2.44854 0.833697 1.55775 1.72449C0.666949 2.61529 0.166504 3.82347 0.166504 5.08325L0.166504 20.9166C0.166504 22.1764 0.666949 23.3845 1.55775 24.2753C2.44854 25.1661 3.65673 25.6666 4.9165 25.6666H27.0832C28.3429 25.6666 29.5511 25.1661 30.4419 24.2753C31.3327 23.3845 31.8332 22.1764 31.8332 20.9166L31.8332 5.08325C31.8332 3.82347 31.3327 2.61529 30.4419 1.72449C29.5511 0.833697 28.3429 0.333252 27.0832 0.333252V0.333252ZM4.9165 3.49992H27.0832C27.5031 3.49992 27.9058 3.66673 28.2028 3.96367C28.4997 4.2606 28.6665 4.66333 28.6665 5.08325L15.9998 12.8099L3.33317 5.08325C3.33317 4.66333 3.49999 4.2606 3.79692 3.96367C4.09385 3.66673 4.49658 3.49992 4.9165 3.49992V3.49992ZM28.6665 20.9166C28.6665 21.3365 28.4997 21.7392 28.2028 22.0362C27.9058 22.3331 27.5031 22.4999 27.0832 22.4999H4.9165C4.49658 22.4999 4.09385 22.3331 3.79692 22.0362C3.49999 21.7392 3.33317 21.3365 3.33317 20.9166L3.33317 8.69325L15.1765 15.9291C15.4172 16.0681 15.6902 16.1412 15.9682 16.1412C16.2461 16.1412 16.5191 16.0681 16.7598 15.9291L28.6665 8.69325L28.6665 20.9166Z" fill="#4B4B4B"/>
</svg>
