<svg width="32" height="32" viewBox="0 0 32 32" fill="none" xmlns="http://www.w3.org/2000/svg">
<path d="M27.9082 17.6338C27.5586 17.6338 27.1931 17.5223 26.8435 17.4426C26.1356 17.2861 25.4399 17.0784 24.7619 16.8211C24.0247 16.5521 23.2144 16.5661 22.4869 16.8603C21.7594 17.1545 21.166 17.7082 20.8211 18.4147L20.4715 19.1319C18.9238 18.2684 17.5016 17.196 16.2447 15.9446C14.9969 14.684 13.9276 13.2576 13.0666 11.7054L13.734 11.2592C14.4385 10.9132 14.9906 10.3182 15.2839 9.58852C15.5773 8.85888 15.5912 8.0462 15.323 7.30688C15.0707 6.62546 14.8637 5.92804 14.7033 5.21918C14.6238 4.86857 14.5603 4.50203 14.5126 4.13548C14.3196 3.01294 13.7334 1.99637 12.8594 1.26886C11.9854 0.541346 10.8812 0.150694 9.74549 0.167254H4.97838C4.29355 0.160805 3.61538 0.302418 2.99003 0.582452C2.36468 0.862487 1.80683 1.27437 1.35447 1.79006C0.902098 2.30574 0.565832 2.91313 0.368558 3.57087C0.171285 4.22861 0.117635 4.92126 0.211263 5.60166C1.0578 12.2781 4.0981 18.4815 8.8519 23.2318C13.6057 27.9821 19.8021 31.0087 26.4622 31.8334H27.066C28.2378 31.8351 29.3692 31.404 30.2441 30.6222C30.7468 30.1713 31.1484 29.6185 31.4223 29.0004C31.6962 28.3823 31.8362 27.7129 31.8331 27.0365V22.2555C31.8137 21.1485 31.4117 20.0826 30.6959 19.2397C29.9801 18.3969 28.9948 17.8293 27.9082 17.6338ZM28.7027 27.1958C28.7024 27.4221 28.6541 27.6457 28.5609 27.8518C28.4678 28.0579 28.3319 28.2417 28.1624 28.3911C27.9854 28.5457 27.7779 28.6611 27.5533 28.7297C27.3288 28.7984 27.0923 28.8188 26.8594 28.7895C20.9083 28.0242 15.3806 25.2938 11.1482 21.0288C6.91573 16.7639 4.21947 11.2071 3.48468 5.23511C3.45939 5.00167 3.48156 4.76551 3.54983 4.5409C3.61811 4.31629 3.73109 4.10789 3.88194 3.92831C4.03085 3.75831 4.21415 3.62207 4.41964 3.52864C4.62513 3.43522 4.8481 3.38675 5.07372 3.38646H9.84083C10.2104 3.37821 10.5712 3.49942 10.8612 3.72921C11.1513 3.959 11.3523 4.28301 11.4299 4.64546C11.4934 5.08106 11.5729 5.51135 11.6682 5.93633C11.8518 6.77642 12.0961 7.60199 12.3992 8.40651L10.1745 9.44239C9.98432 9.52992 9.81322 9.65427 9.67106 9.80829C9.52889 9.96232 9.41847 10.143 9.34612 10.3399C9.27377 10.5369 9.24093 10.7462 9.24947 10.9559C9.25801 11.1656 9.30778 11.3716 9.3959 11.562C11.6828 16.4749 15.6206 20.424 20.5192 22.7176C20.906 22.877 21.34 22.877 21.7268 22.7176C21.925 22.6465 22.1071 22.5367 22.2626 22.3944C22.4181 22.2522 22.5439 22.0803 22.6326 21.8889L23.6178 19.6578C24.4393 19.9524 25.2777 20.1972 26.1285 20.3909C26.5522 20.4865 26.9813 20.5662 27.4156 20.6299C27.777 20.7077 28.1001 20.9094 28.3292 21.2002C28.5583 21.4911 28.6792 21.853 28.6709 22.2236L28.7027 27.1958Z" fill="#353535"/>
</svg>
