<svg width="40" height="40" viewBox="0 0 40 40" fill="none" xmlns="http://www.w3.org/2000/svg">
<path d="M33.6833 14.7L23.3333 4.63335C22.4566 3.79977 21.2931 3.33493 20.0833 3.33493C18.8736 3.33493 17.7101 3.79977 16.8333 4.63335L6.48333 14.6333C6.02347 15.0348 5.65361 15.5289 5.39798 16.0832C5.14236 16.6375 5.00673 17.2396 5 17.85V32.15C5.01757 33.3627 5.51507 34.519 6.38353 35.3656C7.25199 36.2122 8.42059 36.68 9.63333 36.6667H30.3667C31.5794 36.68 32.748 36.2122 33.6165 35.3656C34.4849 34.519 34.9824 33.3627 35 32.15V17.85C34.9987 17.2641 34.8817 16.6843 34.6558 16.1437C34.4298 15.6032 34.0994 15.1125 33.6833 14.7V14.7ZM19.0667 7.03335C19.3216 6.80028 19.6546 6.67104 20 6.67104C20.3454 6.67104 20.6784 6.80028 20.9333 7.03335L30 15.8333L20.8833 24.6333C20.6284 24.8664 20.2954 24.9957 19.95 24.9957C19.6046 24.9957 19.2716 24.8664 19.0167 24.6333L10 15.8333L19.0667 7.03335ZM31.6667 32.15C31.6452 32.4771 31.4978 32.7832 31.2554 33.0039C31.0129 33.2246 30.6944 33.3427 30.3667 33.3333H9.63333C9.30563 33.3427 8.98708 33.2246 8.74464 33.0039C8.5022 32.7832 8.35477 32.4771 8.33333 32.15V18.9167L15.0833 25.4167L12.3167 28.0833C12.0062 28.3956 11.832 28.818 11.832 29.2583C11.832 29.6987 12.0062 30.1211 12.3167 30.4333C12.4716 30.5958 12.6577 30.7254 12.8639 30.8142C13.0701 30.9029 13.2922 30.9492 13.5167 30.95C13.9458 30.9483 14.3577 30.7811 14.6667 30.4833L17.6167 27.65C18.3493 28.0977 19.1914 28.3346 20.05 28.3346C20.9086 28.3346 21.7507 28.0977 22.4833 27.65L25.4333 30.4833C25.7423 30.7811 26.1542 30.9483 26.5833 30.95C26.8078 30.9492 27.0299 30.9029 27.2361 30.8142C27.4423 30.7254 27.6284 30.5958 27.7833 30.4333C28.0938 30.1211 28.268 29.6987 28.268 29.2583C28.268 28.818 28.0938 28.3956 27.7833 28.0833L25 25.4167L31.6667 18.9167V32.15Z" fill="#353535"/>
</svg>
