<svg width="50" height="50" viewBox="0 0 50 50" fill="none" xmlns="http://www.w3.org/2000/svg">
<path d="M39.229 19.6666C39.0379 19.3839 38.7803 19.1525 38.4788 18.9926C38.1772 18.8328 37.8411 18.7495 37.4998 18.75H31.2498V14.5833H35.8332C36.3857 14.5833 36.9156 14.3638 37.3063 13.9731C37.697 13.5824 37.9165 13.0525 37.9165 12.5V4.16665C37.9165 3.61411 37.697 3.08421 37.3063 2.69351C36.9156 2.30281 36.3857 2.08331 35.8332 2.08331H29.1665C25.9618 2.08331 22.8884 3.35638 20.6223 5.62244C18.3562 7.8885 17.0832 10.9619 17.0832 14.1666V18.75H12.4998C11.9473 18.75 11.4174 18.9695 11.0267 19.3602C10.636 19.7509 10.4165 20.2808 10.4165 20.8333V29.1666C10.4165 29.7192 10.636 30.2491 11.0267 30.6398C11.4174 31.0305 11.9473 31.25 12.4998 31.25H17.0832V45.8333C17.0832 46.3858 17.3027 46.9158 17.6934 47.3065C18.0841 47.6972 18.614 47.9166 19.1665 47.9166H29.1665C29.719 47.9166 30.2489 47.6972 30.6396 47.3065C31.0303 46.9158 31.2498 46.3858 31.2498 45.8333V31.25H34.1665C34.5837 31.2504 34.9915 31.1255 35.337 30.8915C35.6824 30.6575 35.9496 30.3251 36.104 29.9375L39.4373 21.6041C39.5632 21.2887 39.61 20.9472 39.5737 20.6095C39.5374 20.2718 39.419 19.9482 39.229 19.6666ZM32.7498 27.0833H29.1665C28.614 27.0833 28.0841 27.3028 27.6934 27.6935C27.3027 28.0842 27.0832 28.6141 27.0832 29.1666V43.75H21.2498V29.1666C21.2498 28.6141 21.0303 28.0842 20.6396 27.6935C20.2489 27.3028 19.719 27.0833 19.1665 27.0833H14.5832V22.9166H19.1665C19.719 22.9166 20.2489 22.6972 20.6396 22.3065C21.0303 21.9158 21.2498 21.3858 21.2498 20.8333V14.1666C21.2553 12.0687 22.0912 10.0583 23.5746 8.57479C25.0581 7.09132 27.0686 6.25548 29.1665 6.24998H33.7498V10.4166H32.0832C31.3778 10.3139 30.6588 10.357 29.9708 10.5434C29.2827 10.7297 28.6403 11.0553 28.0832 11.5C27.7451 11.8539 27.4822 12.2727 27.3103 12.731C27.1385 13.1893 27.0612 13.6777 27.0832 14.1666V20.8333C27.0832 21.3858 27.3027 21.9158 27.6934 22.3065C28.0841 22.6972 28.614 22.9166 29.1665 22.9166H34.4165L32.7498 27.0833Z" fill="#F49A66"/>
</svg>
