<svg width="40" height="40" viewBox="0 0 40 40" fill="none" xmlns="http://www.w3.org/2000/svg">
<path d="M19.9998 3.33333C16.4636 3.33333 13.0722 4.73809 10.5717 7.23857C8.07126 9.73906 6.6665 13.1304 6.6665 16.6667C6.6665 25.6667 18.4165 35.8333 18.9165 36.2667C19.2184 36.5249 19.6026 36.6668 19.9998 36.6668C20.3971 36.6668 20.7813 36.5249 21.0832 36.2667C21.6665 35.8333 33.3332 25.6667 33.3332 16.6667C33.3332 13.1304 31.9284 9.73906 29.4279 7.23857C26.9274 4.73809 23.5361 3.33333 19.9998 3.33333V3.33333ZM19.9998 32.75C16.4498 29.4167 9.99984 22.2333 9.99984 16.6667C9.99984 14.0145 11.0534 11.471 12.9288 9.59559C14.8041 7.72023 17.3477 6.66666 19.9998 6.66666C22.652 6.66666 25.1955 7.72023 27.0709 9.59559C28.9463 11.471 29.9998 14.0145 29.9998 16.6667C29.9998 22.2333 23.5498 29.4333 19.9998 32.75ZM19.9998 10C18.6813 10 17.3924 10.391 16.296 11.1235C15.1997 11.8561 14.3452 12.8973 13.8406 14.1154C13.3361 15.3336 13.204 16.6741 13.4613 17.9673C13.7185 19.2605 14.3534 20.4484 15.2858 21.3807C16.2181 22.3131 17.406 22.948 18.6992 23.2052C19.9924 23.4625 21.3329 23.3304 22.5511 22.8259C23.7692 22.3213 24.8104 21.4668 25.543 20.3705C26.2755 19.2741 26.6665 17.9852 26.6665 16.6667C26.6665 14.8986 25.9641 13.2029 24.7139 11.9526C23.4636 10.7024 21.7679 10 19.9998 10ZM19.9998 20C19.3406 20 18.6961 19.8045 18.1479 19.4382C17.5998 19.072 17.1725 18.5514 16.9202 17.9423C16.6679 17.3332 16.6019 16.663 16.7306 16.0164C16.8592 15.3698 17.1766 14.7758 17.6428 14.3096C18.109 13.8435 18.7029 13.526 19.3495 13.3974C19.9961 13.2688 20.6664 13.3348 21.2754 13.5871C21.8845 13.8394 22.4051 14.2666 22.7714 14.8148C23.1377 15.3629 23.3332 16.0074 23.3332 16.6667C23.3332 17.5507 22.982 18.3986 22.3569 19.0237C21.7317 19.6488 20.8839 20 19.9998 20Z" fill="#353535"/>
</svg>
