<svg width="40" height="40" viewBox="0 0 40 40" fill="none" xmlns="http://www.w3.org/2000/svg">
<path d="M32.4002 21.6667C32.0335 21.6667 31.6502 21.55 31.2835 21.4667C30.541 21.303 29.8113 21.0858 29.1002 20.8167C28.327 20.5354 27.4771 20.55 26.714 20.8577C25.951 21.1654 25.3286 21.7444 24.9668 22.4833L24.6002 23.2333C22.9768 22.3303 21.4851 21.2087 20.1668 19.9C18.8581 18.5817 17.7365 17.09 16.8335 15.4667L17.5335 15C18.2724 14.6382 18.8515 14.0159 19.1592 13.2528C19.4668 12.4898 19.4815 11.6399 19.2002 10.8667C18.9355 10.154 18.7184 9.42467 18.5502 8.68334C18.4668 8.31667 18.4002 7.93334 18.3502 7.55C18.1478 6.37604 17.5329 5.31291 16.6162 4.55207C15.6995 3.79123 14.5413 3.38269 13.3502 3.4H8.35017C7.63189 3.39326 6.92058 3.54136 6.26468 3.83422C5.60878 4.12708 5.02368 4.55783 4.54922 5.09714C4.07475 5.63645 3.72206 6.27166 3.51515 6.95953C3.30824 7.64739 3.25197 8.37177 3.35017 9.08334C4.23806 16.0656 7.42688 22.5531 12.4129 27.5211C17.399 32.489 23.898 35.6542 30.8835 36.5167H31.5168C32.7459 36.5185 33.9325 36.0676 34.8502 35.25C35.3774 34.7784 35.7986 34.2003 36.0859 33.5539C36.3732 32.9074 36.5201 32.2074 36.5168 31.5V26.5C36.4964 25.3423 36.0748 24.2276 35.3241 23.3461C34.5733 22.4646 33.5399 21.871 32.4002 21.6667V21.6667ZM33.2335 31.6667C33.2332 31.9033 33.1825 32.1372 33.0848 32.3527C32.9871 32.5682 32.8446 32.7605 32.6668 32.9167C32.4812 33.0784 32.2635 33.199 32.028 33.2708C31.7925 33.3426 31.5445 33.3639 31.3002 33.3333C25.0583 32.533 19.2606 29.6775 14.8214 25.2172C10.3822 20.7568 7.55419 14.9456 6.7835 8.7C6.75698 8.45587 6.78022 8.20889 6.85184 7.97399C6.92345 7.73909 7.04195 7.52115 7.20017 7.33334C7.35635 7.15556 7.5486 7.01307 7.76413 6.91537C7.97966 6.81766 8.21353 6.76697 8.45017 6.76667H13.4502C13.8377 6.75805 14.2162 6.8848 14.5204 7.12512C14.8246 7.36544 15.0355 7.70429 15.1168 8.08334C15.1835 8.53889 15.2668 8.98889 15.3668 9.43334C15.5594 10.3119 15.8156 11.1753 16.1335 12.0167L13.8002 13.1C13.6007 13.1915 13.4212 13.3216 13.2721 13.4827C13.123 13.6437 13.0072 13.8327 12.9313 14.0387C12.8554 14.2446 12.821 14.4636 12.8299 14.6829C12.8389 14.9022 12.8911 15.1176 12.9835 15.3167C15.3822 20.4546 19.5122 24.5847 24.6502 26.9833C25.0559 27.15 25.5111 27.15 25.9168 26.9833C26.1247 26.909 26.3157 26.7941 26.4788 26.6453C26.6419 26.4965 26.7738 26.3168 26.8668 26.1167L27.9002 23.7833C28.7618 24.0915 29.6411 24.3475 30.5335 24.55C30.9779 24.65 31.4279 24.7333 31.8835 24.8C32.2625 24.8813 32.6014 25.0922 32.8417 25.3964C33.082 25.7006 33.2088 26.0791 33.2002 26.4667L33.2335 31.6667Z" fill="#353535"/>
</svg>
