<svg width="50" height="50" viewBox="0 0 50 50" fill="none" xmlns="http://www.w3.org/2000/svg">
<path d="M46.3844 5.05775C45.7913 4.56428 45.0754 4.24087 44.313 4.12193C43.5507 4.00299 42.7703 4.09298 42.055 4.38231L4.7198 19.456C3.92136 19.7845 3.24171 20.348 2.77105 21.0718C2.30039 21.7956 2.06098 22.6455 2.0846 23.5085C2.10822 24.3716 2.39375 25.207 2.9033 25.904C3.41284 26.601 4.1223 27.1265 4.93751 27.4109L12.4896 30.0374L16.699 43.9575C16.7562 44.1434 16.8392 44.3204 16.9456 44.4833C16.9617 44.5083 16.9845 44.5269 17.0017 44.5512C17.1246 44.7227 17.2732 44.8743 17.4422 45.0007C17.4902 45.0373 17.5362 45.0717 17.5876 45.1042C17.7854 45.2354 18.0044 45.3314 18.235 45.3878L18.2596 45.3899L18.2736 45.3958C18.4122 45.424 18.5533 45.4383 18.6948 45.4386C18.7084 45.4386 18.7204 45.4321 18.7339 45.4318C18.9474 45.4281 19.159 45.3913 19.3612 45.3228C19.4082 45.3068 19.4485 45.28 19.4942 45.2607C19.645 45.1982 19.7878 45.1181 19.9198 45.022C20.0255 44.9329 20.1312 44.8439 20.2369 44.755L25.8664 38.5396L34.2628 45.0439C35.002 45.6194 35.9119 45.9322 36.8487 45.933C37.8303 45.9317 38.7817 45.593 39.5432 44.9737C40.3048 44.3543 40.8303 43.492 41.0317 42.5312L47.8289 9.1634C47.983 8.41239 47.9299 7.63364 47.6755 6.91046C47.421 6.18727 46.9748 5.54687 46.3844 5.05775ZM19.5208 30.7007C19.232 30.9884 19.0345 31.355 18.9532 31.7545L18.3084 34.8879L16.6749 29.4856L25.1442 25.0753L19.5208 30.7007ZM36.8162 41.75L26.8939 34.0636C26.4788 33.7429 25.958 33.5903 25.4354 33.6363C24.9128 33.6823 24.4268 33.9235 24.074 34.3118L22.2711 36.3018L22.9083 33.2051L37.6645 18.4488C38.0167 18.0971 38.2313 17.6308 38.2694 17.1345C38.3076 16.6382 38.1666 16.1446 37.8722 15.7432C37.5778 15.3418 37.1494 15.0592 36.6646 14.9464C36.1797 14.8336 35.6706 14.8982 35.2292 15.1285L14.0516 26.1548L6.29249 23.3154L43.7477 8.33123L36.8162 41.75Z" fill="#F49A66"/>
</svg>
