<svg width="50" height="50" viewBox="0 0 50 50" fill="none" xmlns="http://www.w3.org/2000/svg">
<path d="M32.7994 28.186C32.1909 27.528 31.5075 26.9434 30.7632 26.4441C33.7668 24.1218 35.8717 20.8294 36.7189 17.1285C36.7815 16.861 36.7905 16.5838 36.7455 16.3129C36.7005 16.0419 36.6024 15.7825 36.4568 15.5497C36.3112 15.3168 36.1209 15.115 35.897 14.9559C35.6731 14.7968 35.42 14.6835 35.1521 14.6226C34.8843 14.5617 34.6071 14.5544 34.3364 14.6011C34.0657 14.6477 33.807 14.7475 33.575 14.8945C33.343 15.0415 33.1423 15.233 32.9846 15.4579C32.8269 15.6828 32.7152 15.9366 32.656 16.2048C32.2614 17.936 31.4939 19.5603 30.4071 20.9644C29.3203 22.3685 27.9403 23.5186 26.3633 24.3346V16.6708C26.3504 16.5175 26.3199 16.3662 26.2722 16.2199C26.2585 16.0995 26.2344 15.9804 26.2004 15.864C26.1115 15.6746 25.9943 15.4997 25.8529 15.3455C25.8156 15.3012 25.7968 15.2429 25.7561 15.2019C25.6035 15.061 25.4307 14.9437 25.2434 14.8539C25.1903 14.8255 25.1507 14.7776 25.0949 14.7539C24.9353 14.7007 24.7699 14.6667 24.6023 14.6525C24.4988 14.6222 24.3931 14.6005 24.2861 14.5875L22.9229 14.5833H22.9168C22.4295 14.581 21.9568 14.7504 21.582 15.0619C21.2071 15.3733 20.9539 15.8069 20.8668 16.2864C20.7798 16.7659 20.8644 17.2608 21.1059 17.6842C21.3475 18.1075 21.7304 18.4322 22.1875 18.6013V28.7903C18.8861 25.3632 16.7 21.0166 15.9171 16.3229C15.8714 16.0532 15.7731 15.7951 15.6276 15.5634C15.4822 15.3317 15.2926 15.1309 15.0696 14.9725C14.8465 14.8141 14.5945 14.7012 14.3278 14.6402C14.0612 14.5792 13.7851 14.5713 13.5154 14.617C13.2457 14.6627 12.9876 14.761 12.7559 14.9065C12.5242 15.0519 12.3234 15.2415 12.165 15.4645C12.0066 15.6876 11.8937 15.9396 11.8327 16.2063C11.7716 16.4729 11.7638 16.749 11.8095 17.0187C13.0269 24.2741 17.0728 30.7502 23.0592 35.0261C23.1446 35.0773 23.2336 35.1222 23.3255 35.1604C23.3977 35.2028 23.4725 35.2405 23.5494 35.2733C23.782 35.3663 24.0295 35.4162 24.28 35.4208C24.5864 35.417 24.8882 35.3445 25.1629 35.2086C25.1836 35.1988 25.2074 35.2034 25.228 35.193C25.4122 35.097 25.5808 34.9739 25.7283 34.8278C25.7579 34.7989 25.7777 34.7634 25.8057 34.7329C25.9401 34.5852 26.0524 34.4188 26.1389 34.2388C26.1679 34.179 26.1943 34.1219 26.2176 34.0591C26.3091 33.8293 26.3585 33.5848 26.3633 33.3375L26.3643 28.9083C27.6551 29.2873 28.8182 30.0111 29.7284 31.0018L33.1616 34.7453C33.3463 34.9476 33.5691 35.1115 33.8172 35.2275C34.0653 35.3436 34.3339 35.4096 34.6075 35.4217C34.8812 35.4339 35.1545 35.3919 35.412 35.2982C35.6694 35.2046 35.9058 35.0611 36.1077 34.8759C36.3095 34.6908 36.4729 34.4676 36.5884 34.2192C36.7039 33.9709 36.7693 33.7021 36.7808 33.4284C36.7924 33.1548 36.7498 32.8815 36.6555 32.6243C36.5613 32.3671 36.4173 32.131 36.2316 31.9295L32.7994 28.186ZM31.4017 2.08331H18.62C5.79239 2.08331 2.0835 5.78815 2.0835 18.5974V31.3802C2.0835 44.2078 5.78731 47.9166 18.5986 47.9166H31.3804C44.2079 47.9166 47.9168 44.2118 47.9168 31.4026V18.6198C47.9168 5.79221 44.213 2.08331 31.4017 2.08331ZM43.7502 31.4026C43.7502 41.9026 41.9008 43.75 31.3804 43.75H18.5986C8.09648 43.75 6.25016 41.9006 6.25016 31.3802V18.5974C6.25016 8.09731 8.09954 6.24998 18.62 6.24998H31.4017C41.9039 6.24998 43.7502 8.09936 43.7502 18.6198V31.4026Z" fill="#F49A66"/>
</svg>
